<?xml version="1.0" standalone="no"?>
<!DOCTYPE svg PUBLIC "-//W3C//DTD SVG 20010904//EN"
 "http://www.w3.org/TR/2001/REC-SVG-20010904/DTD/svg10.dtd">
<svg version="1.0" xmlns="http://www.w3.org/2000/svg"
 width="402.000000pt" height="402.000000pt" viewBox="0 0 402.000000 402.000000"
 preserveAspectRatio="xMidYMid meet">
<metadata>
Created by potrace 1.11, written by Peter Selinger 2001-2013
</metadata>
<g transform="translate(0.000000,402.000000) scale(0.100000,-0.100000)"
fill="#000000" stroke="none">
<path d="M760 3929 l-65 -71 -18 24 c-10 13 -27 33 -38 46 -10 12 -19 27 -19
32 0 6 -10 10 -21 10 -21 0 -21 -3 -15 -57 4 -32 9 -75 12 -95 5 -31 3 -38
-10 -38 -9 0 -28 11 -41 24 -13 14 -34 27 -45 31 -11 3 -20 11 -20 16 0 5 -4
9 -10 9 -17 0 -11 -48 10 -90 11 -22 20 -46 20 -55 0 -8 5 -15 10 -15 6 0 10
-9 10 -19 0 -11 5 -23 10 -26 6 -3 10 -17 10 -30 0 -19 -12 -28 -60 -51 -33
-15 -60 -32 -60 -37 0 -15 33 -36 57 -37 12 0 25 -4 28 -10 3 -5 17 -10 31
-10 18 0 24 -5 24 -23 0 -13 -8 -32 -18 -43 -9 -10 -28 -40 -42 -66 -14 -27
-28 -48 -31 -48 -4 0 -12 -13 -19 -30 -7 -16 -16 -30 -21 -30 -5 0 -9 -6 -9
-12 0 -7 -9 -24 -20 -38 -11 -14 -20 -33 -20 -43 0 -15 5 -18 30 -13 17 3 44
9 61 12 31 6 32 5 25 -22 -3 -16 -10 -51 -16 -79 -43 -228 -44 -225 22 -225
46 0 47 -9 13 -76 -29 -57 -30 -69 -10 -108 23 -44 19 -56 -18 -56 -37 0 -74
-28 -82 -63 -15 -71 -23 -474 -10 -539 4 -21 11 -38 16 -38 5 0 9 -9 9 -20 0
-11 5 -20 10 -20 6 0 10 -5 10 -11 0 -29 101 -148 160 -189 19 -13 37 -27 40
-31 27 -35 169 -65 185 -39 16 25 35 6 54 -52 31 -99 63 -182 72 -192 5 -6 9
-18 9 -28 0 -10 5 -18 10 -18 6 0 10 -9 10 -20 0 -11 5 -20 10 -20 6 0 10 -7
10 -15 0 -8 54 -69 120 -135 66 -66 120 -127 120 -135 0 -13 -25 -15 -164 -15
-99 0 -167 -4 -171 -10 -3 -5 -19 -10 -36 -10 -16 0 -29 -4 -29 -9 0 -5 -13
-11 -29 -14 -16 -3 -36 -13 -44 -22 -9 -8 -20 -15 -26 -15 -5 0 -38 -28 -73
-63 -66 -67 -108 -133 -108 -172 0 -13 -4 -25 -9 -27 -18 -6 -24 -98 -28 -375
l-4 -283 45 0 45 0 3 310 c2 230 6 312 16 322 6 6 12 20 12 30 0 10 5 18 10
18 6 0 10 9 10 20 0 11 5 20 10 20 6 0 10 6 10 14 0 19 87 106 106 106 8 0 14
3 14 8 0 8 49 32 67 32 7 0 13 5 13 10 0 6 69 10 188 10 l187 0 13 -40 c6 -22
12 -49 12 -60 0 -11 5 -20 10 -20 6 0 10 -13 10 -29 0 -17 5 -33 10 -36 6 -3
10 -17 10 -30 0 -13 5 -27 10 -30 6 -3 10 -15 10 -26 0 -10 4 -27 9 -37 5 -9
15 -37 22 -62 7 -25 16 -49 21 -55 4 -5 8 -19 8 -31 0 -13 5 -26 10 -29 6 -3
10 -14 10 -23 0 -9 7 -26 16 -37 14 -19 18 -16 110 78 52 54 98 97 102 95 68
-28 112 -56 112 -70 0 -20 -15 -24 -25 -8 -3 6 -22 10 -41 10 -26 0 -34 -4
-34 -18 0 -17 58 -42 98 -42 18 0 42 -48 42 -83 0 -9 5 -17 11 -17 7 0 9 -16
5 -47 -4 -27 -10 -86 -15 -133 -4 -47 -11 -93 -16 -102 -7 -17 3 -18 135 -18
l142 0 -6 67 c-17 216 -18 246 -6 269 17 30 30 35 125 43 77 6 80 7 80 31 0
21 -4 24 -25 22 -14 -2 -53 -6 -87 -9 -58 -4 -63 -3 -63 15 0 14 14 27 48 42
26 12 49 25 52 29 3 3 15 12 28 19 21 12 26 9 70 -35 69 -70 147 -133 166
-133 9 0 16 8 16 19 0 11 5 23 10 26 5 3 10 19 10 35 0 16 5 32 10 35 6 3 10
17 10 30 0 13 5 27 10 30 6 3 10 17 10 31 0 13 4 32 9 42 5 9 19 51 31 92 11
41 31 108 43 147 l22 73 188 0 c177 0 267 -11 267 -32 0 -5 7 -8 15 -8 48 0
185 -162 185 -219 0 -9 4 -21 9 -26 17 -18 23 -100 27 -368 l5 -267 49 0 50 0
0 218 c0 120 -4 222 -9 227 -5 6 -12 44 -15 85 -6 100 -16 159 -27 166 -5 3
-9 14 -9 25 0 10 -4 19 -10 19 -5 0 -10 9 -10 20 0 11 -4 20 -10 20 -5 0 -10
7 -10 15 0 19 -139 157 -151 149 -5 -3 -9 -2 -9 3 0 9 -48 33 -67 33 -7 0 -13
5 -13 10 0 6 -75 10 -206 10 -280 0 -276 -9 -80 185 140 138 186 195 186 232
0 7 4 21 9 31 15 29 31 87 31 110 0 12 5 22 10 22 6 0 10 14 10 31 0 29 2 31
28 24 71 -18 119 -17 163 5 24 13 46 25 49 29 3 3 21 18 40 32 84 64 128 120
181 233 l40 86 -5 153 c-6 193 -19 348 -31 367 -5 8 -16 20 -25 27 -12 9 -17
32 -19 98 -2 91 6 115 40 115 31 0 33 41 5 100 -14 30 -26 60 -26 67 0 7 -4
13 -10 13 -5 0 -10 11 -10 25 0 14 -4 25 -10 25 -5 0 -10 11 -10 25 0 14 -4
25 -10 25 -5 0 -10 9 -10 20 0 16 7 20 30 20 28 0 30 2 30 39 0 22 -4 43 -10
46 -5 3 -10 19 -10 35 0 16 -4 31 -9 34 -5 3 -11 20 -14 38 -9 52 -18 91 -26
113 -18 45 -31 93 -31 112 0 12 -3 23 -7 25 -5 2 -16 24 -25 50 -13 37 -14 49
-4 57 9 7 16 7 23 0 7 -7 15 -5 27 6 22 22 20 32 -10 60 -24 22 -26 45 -4 45
5 0 22 11 37 25 16 13 39 33 52 43 l25 19 -35 16 c-19 8 -68 17 -109 20 -41 2
-87 10 -102 16 -24 9 -28 16 -28 51 0 34 -3 40 -25 46 -14 4 -29 3 -33 -1 -12
-11 -1 -128 13 -142 8 -7 25 -13 39 -13 23 0 115 -20 125 -27 2 -1 -10 -15
-26 -30 -17 -16 -40 -46 -53 -69 l-22 -40 31 -61 c17 -33 31 -70 31 -82 0 -11
5 -21 10 -21 6 0 10 -13 10 -29 0 -17 4 -33 10 -36 5 -3 10 -19 10 -36 0 -16
4 -29 9 -29 5 0 11 -15 14 -32 3 -18 11 -51 17 -73 7 -22 13 -55 14 -74 1 -30
-2 -34 -28 -37 -15 -1 -30 -5 -32 -7 -6 -6 29 -111 38 -115 4 -2 8 -9 8 -16 0
-7 9 -31 20 -54 11 -22 20 -48 20 -56 0 -8 4 -16 9 -18 5 -1 12 -19 16 -39 6
-33 4 -37 -19 -43 -35 -9 -48 -36 -36 -75 12 -43 4 -64 -20 -51 -10 6 -25 10
-32 10 -13 0 -118 -202 -118 -227 0 -7 -3 -13 -8 -13 -4 0 -13 -13 -20 -29 -7
-16 -20 -38 -30 -49 -9 -11 -24 -30 -32 -41 -8 -12 -18 -21 -23 -21 -11 0 -2
204 12 265 7 28 15 65 18 84 3 18 11 45 19 59 12 24 14 24 19 6 20 -62 45 -71
45 -15 0 22 4 43 10 46 6 3 10 18 10 33 0 27 21 96 32 108 4 3 14 -6 23 -20
29 -43 44 -34 31 19 -7 24 -15 47 -19 51 -4 4 -7 18 -7 31 0 13 -4 31 -9 41
-15 29 -31 87 -31 110 0 12 -4 22 -10 22 -5 0 -10 18 -10 40 0 33 3 40 20 40
13 0 20 7 20 20 0 11 -9 35 -20 55 -11 20 -20 42 -20 50 0 8 -3 15 -7 15 -9 0
-33 48 -33 66 0 7 -3 14 -7 16 -5 2 -17 21 -28 42 -35 69 -45 58 -45 -51 0
-55 -3 -102 -6 -106 -8 -7 -34 17 -34 32 0 6 -4 11 -8 11 -5 0 -14 16 -22 35
-13 33 -30 47 -30 25 0 -5 -9 -10 -20 -10 -19 0 -20 7 -20 130 0 81 -4 130
-10 130 -21 0 -90 -25 -90 -32 0 -5 -4 -8 -10 -8 -18 0 -11 29 26 106 24 50
33 79 26 86 -6 6 -36 7 -71 4 -34 -3 -88 -9 -121 -12 -66 -6 -78 4 -27 24 17
7 40 18 49 23 10 5 25 9 33 9 8 0 15 5 15 10 0 6 8 10 19 10 10 0 24 7 31 15
30 36 -56 65 -193 65 -95 0 -96 0 -117 -30 -18 -26 -28 -30 -67 -30 -36 0 -52
6 -80 30 l-34 30 -401 -2 c-345 -3 -402 -5 -408 -18 -10 -21 -27 -61 -34 -82
-6 -19 -46 -25 -46 -8 0 6 -7 10 -15 10 -24 0 -19 53 6 69 32 19 7 31 -67 31
-46 0 -65 -4 -77 -18 -10 -10 -17 -22 -17 -26 0 -18 -32 -36 -64 -36 -20 0
-36 3 -36 6 0 9 24 30 43 37 10 4 17 13 15 20 -3 8 -41 13 -133 15 -137 3
-188 -8 -183 -37 4 -19 49 -26 76 -12 11 6 22 8 25 5 10 -10 -5 -34 -22 -35
-22 -1 -74 -32 -79 -47 -2 -8 8 -12 27 -12 17 0 31 -4 31 -10 0 -5 13 -10 29
-10 16 0 36 -3 45 -6 26 -10 7 -24 -32 -24 -59 0 -70 -13 -39 -44 14 -14 30
-26 35 -26 6 0 13 -7 16 -16 4 -11 1 -14 -12 -10 -9 2 -37 8 -61 11 l-43 7 6
-48 c17 -140 18 -164 7 -164 -6 0 -11 3 -11 8 0 4 -27 35 -59 70 -44 48 -60
59 -64 47 -6 -14 2 -98 19 -202 9 -55 -6 -56 -57 -3 -22 22 -44 40 -49 40 -7
0 -10 -38 -9 -110 2 -60 0 -113 -4 -116 -4 -4 -15 0 -25 9 -39 35 -50 18 -52
-78 -2 -85 -2 -85 21 -85 13 0 19 -5 15 -12 -3 -7 -9 -21 -12 -30 -4 -10 -10
-18 -15 -18 -5 0 -9 -4 -9 -9 0 -15 29 -21 55 -11 22 9 25 7 25 -15 0 -14 -4
-25 -9 -25 -5 0 -12 -16 -15 -35 -3 -19 -9 -51 -12 -70 -4 -23 -2 -35 5 -35 7
0 11 -24 11 -64 0 -70 19 -116 71 -177 16 -19 29 -40 29 -46 0 -7 4 -13 9 -13
5 0 11 -15 14 -32 3 -18 8 -45 11 -60 4 -17 2 -28 -4 -28 -5 0 -10 4 -10 9 0
5 -8 11 -17 15 -10 3 -24 9 -30 12 -10 4 -13 -10 -13 -53 l0 -58 -30 35 c-16
19 -30 41 -30 48 0 6 -4 12 -8 12 -5 0 -15 12 -23 28 -8 15 -16 29 -19 32 -12
12 -46 68 -59 95 -7 17 -17 38 -22 47 -5 10 -9 27 -9 37 0 19 19 71 30 81 11
11 30 51 30 64 0 8 5 16 11 18 5 2 7 11 4 21 -6 13 -19 17 -62 17 l-56 0 7 48
c4 26 11 70 16 97 5 28 14 79 20 114 5 36 12 67 15 69 10 10 -18 32 -41 32
-29 0 -30 10 -4 40 11 13 20 27 20 31 0 4 6 14 13 21 6 8 17 23 23 33 30 54
40 71 57 89 30 34 18 57 -35 70 -32 7 -37 31 -8 39 20 5 29 52 12 59 -5 2 -12
15 -16 31 -5 20 -3 27 9 27 8 0 15 -4 15 -10 0 -5 9 -10 20 -10 18 0 20 7 20
70 0 39 3 70 6 70 3 0 14 -5 25 -11 17 -9 26 -3 62 37 23 26 66 71 96 100 29
29 50 57 46 63 -3 6 -21 11 -38 11 -27 -1 -43 -13 -97 -71z m895 -66 c-4 -10
-11 -36 -16 -58 -22 -112 -36 -155 -48 -155 -7 0 -31 95 -31 123 0 9 5 17 10
17 6 0 10 7 10 15 0 8 3 15 8 15 4 0 16 14 27 30 22 33 52 42 40 13z m1094
-120 c-39 -52 -54 -63 -85 -63 -18 0 -36 5 -39 10 -3 6 -17 10 -31 10 -13 0
-24 4 -24 9 0 9 32 17 103 28 20 3 40 9 43 14 3 5 14 9 26 9 18 0 19 -2 7 -17z
m-1410 -36 c14 -18 4 -27 -31 -27 -15 0 -28 -4 -28 -10 0 -15 -49 -12 -66 4
-8 8 -14 22 -14 30 0 13 12 16 64 16 41 0 68 -5 75 -13z m1096 -97 c-3 -5 -13
-10 -22 -10 -19 0 -79 -18 -105 -31 -10 -5 -29 -9 -43 -9 -14 0 -25 -4 -25
-10 0 -5 -9 -10 -20 -10 -37 0 -17 25 46 58 28 15 58 21 107 22 43 0 66 -4 62
-10z m254 -69 c13 -8 13 -16 1 -53 -7 -24 -17 -47 -22 -52 -4 -6 -8 -20 -8
-33 0 -13 -4 -23 -10 -23 -5 0 -10 -9 -10 -20 0 -11 6 -20 13 -20 7 0 32 9 55
20 22 11 48 20 56 20 8 0 18 5 21 10 3 6 17 10 31 10 13 0 24 5 24 10 0 13 27
13 36 -1 3 -6 1 -22 -5 -35 -6 -13 -16 -36 -22 -51 -6 -16 -15 -36 -20 -45
-14 -27 -11 -38 11 -38 11 0 20 5 20 10 0 6 9 10 20 10 19 0 20 -7 20 -110 0
-93 2 -110 16 -110 8 0 22 7 31 15 19 20 39 14 35 -11 -3 -23 -21 -91 -32
-119 -12 -34 -30 -91 -30 -98 0 -12 25 -8 59 9 54 27 61 17 61 -94 0 -54 -4
-102 -9 -107 -5 -6 -11 -37 -15 -70 -10 -106 -24 -219 -31 -252 -9 -42 5 -43
36 -3 13 16 27 30 32 30 4 0 7 -36 7 -80 0 -47 4 -80 10 -80 6 0 10 5 10 10 0
6 5 10 11 10 11 0 10 -12 -10 -115 -9 -47 -19 -91 -41 -177 -19 -72 -30 -118
-39 -155 -4 -21 -16 -58 -25 -83 -8 -25 -16 -53 -16 -63 0 -9 -4 -25 -9 -35
-5 -9 -19 -51 -32 -92 -13 -41 -28 -81 -34 -87 -54 -66 -178 -195 -211 -221
-23 -18 -55 -45 -71 -60 -39 -36 -72 -54 -83 -47 -6 4 -14 -5 -20 -19 -5 -14
-16 -26 -25 -26 -8 0 -15 -4 -15 -9 0 -5 -18 -16 -39 -24 -22 -9 -42 -21 -46
-27 -9 -14 -182 -100 -201 -100 -8 0 -14 -4 -14 -10 0 -5 -11 -10 -24 -10 -14
0 -27 -4 -30 -9 -7 -10 -56 -20 -139 -28 -54 -4 -147 13 -147 27 0 4 -22 13
-50 20 -27 7 -50 17 -50 22 0 4 -6 8 -13 8 -18 0 -67 24 -67 33 0 4 -13 7 -30
7 -16 0 -30 5 -30 10 0 6 -9 10 -20 10 -11 0 -20 5 -20 10 0 6 -9 10 -20 10
-11 0 -20 5 -20 10 0 6 -6 10 -13 10 -7 0 -23 9 -35 20 -12 11 -26 20 -32 20
-6 0 -20 9 -32 20 -11 10 -36 26 -54 35 -18 8 -39 21 -46 28 -7 7 -33 28 -58
47 -58 45 -99 86 -130 130 -13 19 -27 37 -30 40 -3 3 -10 14 -16 25 -34 62
-47 92 -65 150 -7 22 -17 44 -21 50 -4 5 -8 17 -8 27 0 10 -4 26 -9 36 -5 9
-14 37 -21 62 -7 25 -16 53 -21 62 -5 10 -9 27 -9 38 0 11 -4 28 -9 38 -13 26
-31 86 -31 105 0 10 -4 25 -9 35 -5 9 -14 35 -19 57 -39 157 -41 185 -12 203
12 7 18 17 14 23 -9 15 -22 122 -17 136 4 9 13 7 33 -7 15 -11 33 -20 39 -20
13 0 14 22 2 35 -5 6 -12 33 -14 60 -7 58 -22 143 -30 165 -3 8 -8 38 -11 67
-6 45 -4 54 16 72 14 14 35 21 61 21 30 0 45 7 67 30 15 17 33 30 39 30 6 0
11 7 11 15 0 19 -38 20 -59 1 -29 -26 -42 -22 -56 19 -16 44 -20 125 -6 125 5
0 14 -13 21 -30 8 -19 20 -30 33 -30 18 0 19 4 13 43 -4 23 -11 76 -17 117 -5
41 -12 92 -15 112 -10 63 -1 72 47 48 46 -24 58 -20 41 13 -6 12 -16 40 -23
62 -6 22 -15 48 -20 57 -12 24 -11 68 1 68 6 0 19 -4 30 -10 11 -5 29 -14 40
-20 11 -5 29 -10 40 -10 17 0 20 7 20 46 0 62 19 80 68 66 41 -13 86 -21 152
-29 25 -3 49 -9 55 -14 5 -5 30 -9 56 -9 26 0 51 -4 54 -10 3 -5 22 -10 41
-10 42 0 107 -41 176 -112 26 -26 49 -48 52 -48 3 0 6 16 6 36 0 52 18 39 60
-41 19 -38 40 -69 45 -69 6 -1 13 26 16 59 6 63 16 95 29 95 4 0 18 -25 30
-55 12 -30 25 -55 29 -55 9 0 31 60 31 83 0 10 4 25 9 35 5 9 14 29 21 44 7
14 22 30 34 34 36 12 204 42 416 74 59 9 157 25 170 29 3 0 11 -3 19 -8z m691
-931 c0 -5 9 -10 21 -10 11 0 17 -4 14 -10 -6 -10 -75 -14 -75 -5 0 9 24 34
33 35 4 0 7 -4 7 -10z m-2820 -118 c0 -4 18 -15 39 -24 57 -25 101 -92 101
-155 l0 -48 -20 25 c-11 14 -20 29 -20 33 0 11 -63 73 -88 86 -42 23 -50 15
-51 -49 0 -46 3 -60 15 -60 8 0 19 11 24 25 12 32 23 32 49 -1 23 -30 27 -44
10 -44 -16 0 -39 -26 -39 -44 0 -18 25 -22 35 -6 12 19 42 10 53 -16 10 -20 9
-28 -2 -40 -8 -8 -20 -14 -26 -14 -18 0 -54 -43 -67 -81 -16 -43 -17 -105 -3
-114 6 -3 10 -15 10 -26 0 -11 18 -47 41 -81 37 -54 44 -59 68 -53 14 4 49 9
77 12 l50 5 13 -42 c11 -37 10 -44 -5 -61 -21 -23 -59 -24 -110 -3 -43 18
-194 166 -194 189 0 8 -4 15 -10 15 -5 0 -10 9 -10 20 0 11 -4 20 -10 20 -5 0
-10 14 -10 30 0 17 -5 30 -11 30 -10 0 -7 178 6 388 l6 92 40 0 c21 0 39 -3
39 -8z m2880 -76 c0 -47 5 -88 10 -91 6 -4 10 -67 10 -156 0 -93 -4 -149 -10
-149 -5 0 -10 -13 -10 -30 0 -16 -4 -30 -10 -30 -5 0 -10 -9 -10 -20 0 -11 -4
-20 -9 -20 -5 0 -13 -10 -17 -22 -10 -33 -160 -178 -183 -178 -11 0 -23 -4
-26 -10 -9 -15 -74 -12 -91 4 -17 18 -18 44 -1 79 11 24 17 27 62 27 28 0 56
-5 62 -11 13 -13 63 -4 63 12 0 5 11 26 25 46 13 20 32 61 41 91 15 47 16 60
4 105 -12 46 -47 96 -67 97 -4 0 -16 7 -26 14 -15 12 -16 18 -6 40 12 26 42
35 54 16 10 -16 35 -12 35 6 0 20 -24 44 -44 44 -22 0 -20 5 10 39 28 32 54
31 54 0 0 -12 7 -19 20 -19 18 0 20 7 20 60 0 48 -3 60 -16 60 -43 0 -108 -62
-143 -135 -13 -27 -27 -58 -32 -67 -5 -10 -9 -27 -9 -37 0 -11 -4 -23 -10 -26
-21 -13 -10 -65 20 -97 21 -22 30 -41 30 -64 0 -19 -4 -34 -10 -34 -5 0 -10
-7 -10 -15 0 -29 -61 -85 -92 -85 -24 0 -28 4 -28 29 0 17 5 33 10 36 6 3 10
21 10 40 0 19 4 36 9 39 5 3 11 23 14 43 5 35 10 59 38 168 6 22 14 60 18 85
4 25 12 54 19 66 15 28 113 114 129 114 7 0 13 5 13 10 0 6 18 10 40 10 l40 0
0 -84z m-2760 -316 c0 -11 -4 -20 -8 -20 -15 0 -32 -49 -32 -91 0 -38 12 -69
38 -97 6 -7 12 -19 12 -25 0 -7 -11 0 -25 15 -14 15 -25 34 -25 43 0 8 -4 15
-10 15 -14 0 -12 136 2 160 17 26 48 26 48 0z m2602 3 c14 -13 18 -31 18 -90
0 -42 -4 -73 -10 -73 -5 0 -10 -7 -10 -15 0 -18 -46 -72 -55 -64 -2 3 4 15 15
27 11 12 20 28 20 36 0 8 5 18 10 21 6 3 10 26 10 51 0 24 -4 44 -10 44 -5 0
-10 9 -10 20 0 11 -4 20 -10 20 -5 0 -10 9 -10 20 0 24 17 26 42 3z m-2520
-68 c15 -85 21 -105 29 -111 5 -3 9 -18 9 -35 0 -21 -5 -29 -18 -29 -22 0 -82
62 -82 85 0 8 -4 15 -10 15 -19 0 -10 65 13 92 30 38 50 32 59 -17z m1818
-1047 c0 -14 -19 -77 -31 -100 -5 -10 -9 -27 -9 -38 0 -11 -4 -28 -9 -38 -5
-9 -14 -37 -21 -62 -7 -25 -16 -53 -21 -62 -5 -10 -9 -27 -9 -38 0 -11 -4 -28
-9 -38 -5 -9 -14 -37 -21 -62 -15 -56 -23 -73 -38 -78 -7 -2 -72 55 -144 127
-72 72 -137 131 -144 131 -18 0 -29 -21 -25 -47 2 -18 -3 -23 -18 -23 -14 0
-21 6 -21 20 0 11 5 20 10 20 6 0 10 14 10 30 0 18 5 30 13 30 7 0 32 9 55 20
22 11 45 20 50 20 14 0 256 122 270 137 7 7 17 13 21 13 4 0 21 11 37 25 31
27 54 32 54 13z m-1190 -27 c14 -9 57 -32 95 -51 39 -19 77 -41 85 -50 27 -27
129 -80 155 -80 8 0 15 -4 15 -10 0 -5 9 -10 20 -10 13 0 20 -7 20 -20 0 -11
4 -20 9 -20 13 0 21 -53 9 -67 -10 -13 -58 -18 -58 -7 0 3 7 12 15 20 17 17
20 50 5 59 -15 9 -60 -6 -60 -20 0 -7 -33 -47 -72 -88 -40 -41 -89 -94 -109
-116 -40 -45 -59 -52 -59 -21 0 11 -4 20 -10 20 -5 0 -10 11 -10 25 0 14 -5
35 -12 48 -24 48 -28 57 -28 76 0 11 -4 23 -10 26 -5 3 -10 19 -10 35 0 16 -4
32 -10 35 -5 3 -10 17 -10 31 0 13 -4 24 -10 24 -5 0 -10 14 -10 30 0 17 -4
30 -10 30 -5 0 -10 13 -10 29 0 17 -4 33 -10 36 -14 8 -13 38 2 53 14 14 41 7
78 -17z m613 -227 c7 -8 -11 -46 -27 -56 -23 -16 -75 -8 -96 14 -36 39 -27 48
48 48 38 0 72 -3 75 -6z"/>
<path d="M1080 2870 c0 -5 5 -10 10 -10 6 0 10 5 10 10 0 6 -4 10 -10 10 -5 0
-10 -4 -10 -10z"/>
<path d="M1123 2846 c-13 -6 -23 -14 -23 -18 0 -5 -6 -8 -12 -8 -7 0 -25 -10
-40 -23 -14 -12 -36 -30 -48 -40 -11 -10 -18 -22 -15 -27 4 -6 62 -10 135 -10
75 0 131 -4 135 -10 3 -5 21 -10 40 -10 19 0 37 -4 40 -10 3 -5 21 -10 40 -10
19 0 37 -4 40 -10 3 -5 17 -10 30 -10 13 0 27 -4 30 -10 3 -5 17 -10 30 -10
13 0 27 -4 30 -10 3 -5 17 -10 31 -10 13 0 32 -4 42 -9 35 -18 126 -41 133
-34 19 19 -5 54 -50 74 -25 12 -59 27 -75 35 -16 8 -35 14 -43 14 -7 0 -13 5
-13 10 0 6 -9 10 -20 10 -11 0 -20 5 -20 10 0 6 -6 10 -13 10 -7 0 -32 9 -55
20 -22 11 -48 20 -57 20 -8 0 -15 5 -15 10 0 6 -9 10 -19 10 -11 0 -23 5 -26
10 -3 6 -17 10 -31 10 -13 0 -24 5 -24 10 0 6 -13 10 -29 10 -17 0 -33 5 -36
10 -8 13 -64 11 -92 -4z"/>
<path d="M2575 2788 c-16 -6 -39 -14 -50 -19 -11 -4 -33 -10 -50 -14 -16 -3
-48 -11 -70 -16 -22 -6 -55 -13 -73 -16 -18 -3 -35 -9 -38 -14 -3 -5 -25 -9
-50 -9 -24 0 -44 -4 -44 -10 0 -5 -15 -10 -33 -10 -34 0 -58 -18 -71 -54 -8
-22 11 -49 28 -39 6 4 33 11 61 15 56 10 116 22 190 38 28 7 77 14 110 17 33
2 64 9 70 14 12 11 185 12 185 0 0 -4 30 -11 67 -14 52 -5 72 -3 91 9 13 9 32
14 42 11 16 -4 17 -2 8 19 -12 26 -24 31 -30 12 -3 -9 -6 -9 -12 0 -4 7 -2 12
3 12 6 0 11 4 11 9 0 5 -11 9 -24 9 -14 0 -36 11 -51 26 -14 14 -30 26 -36 26
-6 0 13 -23 42 -50 29 -28 50 -53 46 -56 -3 -3 -16 3 -28 15 -13 12 -27 21
-31 21 -5 0 -20 11 -34 25 -51 51 -151 69 -229 43z"/>
<path d="M1125 2608 c-36 -21 -55 -49 -49 -74 4 -15 0 -29 -10 -39 -20 -20
-30 -59 -22 -82 6 -14 11 -11 37 15 26 26 39 32 75 32 l44 0 0 -55 c0 -52 10
-83 36 -112 23 -25 86 -53 118 -53 82 0 166 84 166 165 0 36 1 37 28 31 87
-22 97 -19 64 19 -20 24 -45 36 -132 66 -59 20 -149 28 -335 29 -5 0 3 7 20
16 23 12 51 14 120 11 114 -6 195 -16 220 -27 38 -16 52 -18 65 -10 11 7 11
11 -1 22 -27 24 -58 38 -88 38 -17 0 -33 5 -36 10 -9 14 -295 12 -320 -2z
m329 -148 c33 -12 33 -24 0 -57 -22 -22 -28 -24 -49 -13 -29 15 -51 59 -32 65
6 2 19 6 27 8 23 8 27 8 54 -3z"/>
<path d="M2460 2612 c0 -5 -22 -15 -50 -22 -27 -7 -50 -17 -50 -22 0 -4 -7 -8
-16 -8 -15 0 -44 -23 -44 -34 0 -10 59 -6 65 4 3 6 19 10 35 10 16 0 31 4 34
9 9 14 72 23 199 28 95 3 120 1 132 -11 8 -8 15 -16 15 -18 0 -2 -69 -3 -153
-3 -143 0 -207 -9 -259 -36 -10 -5 -23 -9 -29 -9 -11 0 -79 -63 -79 -74 0 -10
48 -7 55 4 9 14 45 12 47 -2 8 -68 22 -104 53 -135 18 -18 40 -33 49 -33 9 0
16 -4 16 -10 0 -5 23 -10 50 -10 28 0 50 5 50 10 0 6 7 10 16 10 22 0 84 64
84 87 0 10 5 24 11 30 8 8 8 17 0 31 -15 27 -14 49 2 55 26 10 78 -6 107 -34
16 -16 32 -29 35 -29 11 0 4 87 -7 99 -10 11 -10 14 0 18 22 8 13 38 -23 71
l-36 32 -154 0 c-85 0 -155 -4 -155 -8z m171 -152 c10 -6 19 -17 19 -24 0 -15
-33 -56 -46 -56 -16 0 -64 47 -64 63 0 24 57 35 91 17z"/>
<path d="M2093 2545 c-7 -8 -13 -21 -13 -30 0 -8 -4 -15 -8 -15 -5 0 -15 -78
-22 -172 -13 -176 -3 -358 20 -366 6 -2 10 -14 10 -27 0 -13 5 -27 10 -30 6
-3 10 -15 10 -26 0 -10 5 -19 10 -19 27 0 -4 -64 -57 -117 -32 -33 -146 -33
-197 0 -19 12 -35 29 -36 38 0 19 -53 46 -58 30 -5 -15 -39 -14 -45 2 -3 7 -3
25 0 40 3 15 2 27 -2 27 -14 0 -45 -43 -45 -62 0 -25 18 -58 31 -58 5 0 19 -9
31 -20 12 -11 30 -20 40 -20 11 0 38 -9 60 -20 24 -12 62 -20 91 -20 26 0 58
-5 70 -11 16 -9 22 -9 25 0 2 6 12 11 22 11 11 0 28 9 39 21 13 14 26 19 39
15 12 -4 26 -1 35 9 9 8 23 15 31 15 9 0 16 5 16 10 0 6 7 10 15 10 21 0 33
37 27 83 -3 28 -9 37 -23 37 -15 0 -19 -7 -19 -40 0 -53 -26 -55 -36 -2 -4 20
-19 64 -35 97 -31 67 -40 139 -40 320 -1 126 9 226 22 240 11 11 12 65 2 65
-5 -1 -14 -7 -20 -15z"/>
<path d="M1434 1485 c3 -9 6 -19 6 -21 0 -2 9 -4 20 -4 11 0 20 -4 20 -10 0
-5 6 -10 14 -10 8 0 40 -13 71 -30 31 -16 63 -30 71 -30 8 0 22 -4 32 -9 51
-27 104 -32 272 -28 187 5 269 13 284 28 6 5 20 9 32 9 13 0 26 5 29 10 3 6
15 10 26 10 10 0 27 4 37 8 9 5 26 13 37 19 11 5 41 16 68 24 34 10 47 18 47
32 0 17 -7 18 -107 12 -142 -8 -752 -8 -872 0 -85 6 -93 5 -87 -10z m856 -56
c0 -5 -11 -9 -25 -9 -14 0 -25 -4 -25 -9 0 -17 -74 -23 -307 -28 -159 -3 -233
-1 -233 6 0 6 -9 11 -20 11 -11 0 -20 5 -20 10 0 6 -9 10 -20 10 -11 0 -20 5
-20 10 0 6 100 10 278 11 152 0 286 4 297 8 22 9 95 -7 95 -20z"/>
<path d="M2540 1370 c0 -5 5 -10 10 -10 6 0 10 5 10 10 0 6 -4 10 -10 10 -5 0
-10 -4 -10 -10z"/>
<path d="M3105 3980 c3 -5 8 -10 11 -10 2 0 4 5 4 10 0 6 -5 10 -11 10 -5 0
-7 -4 -4 -10z"/>
</g>
</svg>
